<?xml version="1.0" encoding="UTF-8" standalone="no"?>
<!DOCTYPE svg PUBLIC "-//W3C//DTD SVG 1.1//EN" "http://www.w3.org/Graphics/SVG/1.1/DTD/svg11.dtd">
<svg width="100%" height="100%" viewBox="0 0 769 248" version="1.1" xmlns="http://www.w3.org/2000/svg" xmlns:xlink="http://www.w3.org/1999/xlink" xml:space="preserve" xmlns:serif="http://www.serif.com/" style="fill-rule:evenodd;clip-rule:evenodd;stroke-linejoin:round;stroke-miterlimit:1.41421;">
    <path d="M73.328,144.042L22.674,108.417C22.545,110.146 22.457,111.892 22.457,113.658C22.457,146.692 54.228,170.675 73.328,182.096L73.328,144.042ZM81.028,134.471L130.549,99.65C127.57,84.146 119.957,70.45 111.024,58.996L81.028,80.092L81.028,134.471ZM77.178,73.229L106.02,52.945C97.657,43.404 88.707,35.754 81.595,30.337L77.203,27L72.824,30.35C65.707,35.787 56.77,43.458 48.407,52.995L77.178,73.229Z" style="fill:rgb(129,188,0);"/>
    <path d="M91.345,235.357C89.991,242.107 84.162,247.186 77.178,247.186C70.195,247.186 64.366,242.107 63.012,235.357L91.345,235.357ZM98.241,218.041C101.378,218.041 103.924,220.649 103.924,223.866C103.924,227.087 101.378,229.695 98.241,229.695L56.116,229.695C52.978,229.695 50.433,227.087 50.433,223.866C50.433,220.649 52.978,218.041 56.116,218.041L98.241,218.041ZM60.121,200.983C38.554,187.921 0,158.329 0,113.654C0,85.287 12.804,56.954 37.029,31.712C54.996,12.979 72.808,2.542 73.554,2.104L77.179,0L80.804,2.104C81.55,2.542 99.358,12.979 117.329,31.712C141.55,56.954 154.354,85.287 154.354,113.654C154.354,158.329 115.804,187.921 94.242,200.983L98.242,200.983C101.379,200.983 103.921,203.596 103.921,206.812C103.921,210.029 101.379,212.637 98.242,212.637L56.117,212.637C52.979,212.637 50.433,210.029 50.433,206.812C50.433,203.596 52.979,200.983 56.117,200.983L60.121,200.983ZM77.175,193.346C64.379,186.75 14.704,158.279 14.704,113.654C14.704,62.612 63.367,26.692 77.183,17.525C91.025,26.675 139.65,62.487 139.65,113.654C139.65,158.163 89.963,186.733 77.175,193.346ZM81.028,144.042L81.028,182.167C100.086,170.871 131.899,147.013 131.899,113.658C131.899,111.892 131.811,110.146 131.69,108.417L81.028,144.042ZM73.328,80.092L43.403,59.042C34.449,70.509 26.815,84.205 23.82,99.659L73.328,134.471L73.328,80.092Z" style="fill:rgb(56,174,43);"/>
    <path d="M528.941,44.517L550.166,103.996L558.228,82.683L544.595,44.742L561.745,44.742L569.483,68.062L577.224,44.742L594.495,44.742L580.641,82.679L588.895,104.029L610.028,44.517L629.753,44.517L596.766,127.637L582.028,127.637L569.483,96.483L556.945,127.637L542.199,127.637L541.828,126.687L509.324,44.517L528.941,44.517ZM237.05,44.516C252.804,44.517 263.387,59.066 263.387,72.654C263.387,82.92 258.058,92.333 249.966,96.65L268.862,127.637L248.216,127.637L231.829,100.791L219.17,100.791L219.17,127.637L201.033,127.637L201.033,44.516L237.05,44.516ZM407.237,94.253L407.237,44.637L425.374,44.637L425.374,127.637L410.866,127.637L372.912,79.112L372.912,127.637L354.774,127.637L354.774,44.516L368.737,44.516L407.237,94.253ZM337.946,44.515L337.946,61.198L299.888,61.198L299.888,77.453L332.775,77.453L332.775,93.119L299.888,93.119L299.888,110.957L338.934,110.957L338.934,127.636L281.75,127.636L281.75,44.515L337.946,44.515ZM501.465,44.515L501.465,61.198L463.407,61.198L463.407,77.453L496.295,77.453L496.295,93.119L463.407,93.119L463.407,110.957L502.453,110.957L502.453,127.636L445.27,127.636L445.27,44.515L501.465,44.515ZM236.72,84.112C241.446,84.112 245.141,79.079 245.141,72.654C245.141,65.804 240.445,61.195 236.058,61.195L219.17,61.195L219.17,84.112L236.72,84.112Z" style="fill:rgb(255, 255, 255);"/>
    <path d="M569.719,154.722C583.577,154.722 593.698,161.947 598.536,172.205L592.377,176.038C587.427,165.438 577.748,161.83 569.282,161.83C550.582,161.83 540.352,178.976 540.352,195.105C540.352,212.813 553.002,228.83 569.611,228.83C578.411,228.83 588.748,224.318 593.698,213.943L600.077,217.326C595.019,229.284 581.161,235.938 569.169,235.938C547.723,235.938 532.657,214.959 532.657,194.651C532.657,175.368 546.182,154.722 569.719,154.722ZM460.297,235.262L452.71,235.262L452.71,155.175L458.647,155.175L510.343,221.837L510.343,155.287L517.93,155.287L517.93,235.262L511.33,235.262L460.297,169.837L460.297,235.262ZM300.625,235.262L293.037,235.262L293.037,155.175L298.975,155.175L350.67,221.837L350.67,155.287L358.258,155.287L358.258,235.262L351.662,235.262L300.625,169.837L300.625,235.262ZM252.468,162.172L208.91,162.172L208.91,191.605L245.755,191.605L245.755,198.151L208.91,198.151L208.91,235.26L201.322,235.26L201.322,155.176L252.468,155.176L252.468,162.172ZM723.117,228.268L768.321,228.268L768.321,235.26L715.529,235.26L715.529,155.176L723.117,155.176L723.117,228.268ZM441.394,235.26L433.144,235.26L423.023,210.218L387.94,210.218L377.928,235.26L369.79,235.26L402.457,155.176L408.728,155.176L441.394,235.26ZM704.217,235.26L695.967,235.26L685.846,210.218L650.763,210.218L640.75,235.26L632.613,235.26L665.28,155.176L671.546,155.176L704.217,235.26ZM273.237,155.283L273.237,235.258L265.65,235.258L265.65,155.283L273.237,155.283ZM621.07,155.283L621.07,235.258L613.483,235.258L613.483,155.283L621.07,155.283ZM405.648,164.426L389.59,204.018L421.265,204.018L405.648,164.426ZM668.467,164.426L652.409,204.018L684.088,204.018L668.467,164.426Z" style="fill:rgb(255, 255, 255);"/>
</svg>
